<mxfile host="Electron" modified="2023-12-27T14:54:09.741Z" agent="Mozilla/5.0 (X11; Linux x86_64) AppleWebKit/537.36 (KHTML, like Gecko) draw.io/22.1.11 Chrome/114.0.5735.289 Electron/25.9.8 Safari/537.36" etag="q1raDkl6GPAmwSccWVKz" version="22.1.11" type="device">
  <diagram name="Page-1" id="MMVop4J2-tTlSrfWMaJz">
    <mxGraphModel dx="508" dy="300" grid="1" gridSize="10" guides="1" tooltips="1" connect="1" arrows="1" fold="1" page="1" pageScale="1" pageWidth="850" pageHeight="1100" math="0" shadow="0">
      <root>
        <mxCell id="0" />
        <mxCell id="1" parent="0" />
        <mxCell id="JTKkmH9trB3i7Pl_PL6R-3" value="" style="rounded=0;whiteSpace=wrap;html=1;" vertex="1" parent="1">
          <mxGeometry x="320" y="280" width="220" height="240" as="geometry" />
        </mxCell>
        <mxCell id="JTKkmH9trB3i7Pl_PL6R-4" value="query" style="rounded=0;whiteSpace=wrap;html=1;fontSize=10;" vertex="1" parent="1">
          <mxGeometry x="330" y="290" width="140" height="30" as="geometry" />
        </mxCell>
        <mxCell id="JTKkmH9trB3i7Pl_PL6R-16" value="search" style="rounded=0;whiteSpace=wrap;html=1;fontSize=10;" vertex="1" parent="1">
          <mxGeometry x="480" y="290" width="50" height="30" as="geometry" />
        </mxCell>
        <mxCell id="JTKkmH9trB3i7Pl_PL6R-18" value="download" style="rounded=0;whiteSpace=wrap;html=1;fontSize=10;" vertex="1" parent="1">
          <mxGeometry x="330" y="480" width="200" height="30" as="geometry" />
        </mxCell>
        <mxCell id="JTKkmH9trB3i7Pl_PL6R-9" value="res 1" style="rounded=0;whiteSpace=wrap;html=1;" vertex="1" parent="1">
          <mxGeometry x="330" y="330" width="200" height="20" as="geometry" />
        </mxCell>
        <mxCell id="JTKkmH9trB3i7Pl_PL6R-10" value="res 2" style="rounded=0;whiteSpace=wrap;html=1;" vertex="1" parent="1">
          <mxGeometry x="330" y="350" width="200" height="20" as="geometry" />
        </mxCell>
        <mxCell id="JTKkmH9trB3i7Pl_PL6R-11" value="res 3" style="rounded=0;whiteSpace=wrap;html=1;" vertex="1" parent="1">
          <mxGeometry x="330" y="370" width="200" height="20" as="geometry" />
        </mxCell>
        <mxCell id="JTKkmH9trB3i7Pl_PL6R-12" value="..." style="rounded=0;whiteSpace=wrap;html=1;" vertex="1" parent="1">
          <mxGeometry x="330" y="390" width="200" height="20" as="geometry" />
        </mxCell>
        <mxCell id="JTKkmH9trB3i7Pl_PL6R-13" value="" style="rounded=0;whiteSpace=wrap;html=1;" vertex="1" parent="1">
          <mxGeometry x="330" y="410" width="200" height="20" as="geometry" />
        </mxCell>
        <mxCell id="JTKkmH9trB3i7Pl_PL6R-14" value="" style="rounded=0;whiteSpace=wrap;html=1;" vertex="1" parent="1">
          <mxGeometry x="330" y="430" width="200" height="20" as="geometry" />
        </mxCell>
        <mxCell id="JTKkmH9trB3i7Pl_PL6R-15" value="" style="rounded=0;whiteSpace=wrap;html=1;" vertex="1" parent="1">
          <mxGeometry x="330" y="450" width="200" height="20" as="geometry" />
        </mxCell>
      </root>
    </mxGraphModel>
  </diagram>
</mxfile>
